<mxfile host="65bd71144e">
    <diagram id="51IOdFOdULPDQw3Ngq8u" name="第 1 页">
        <mxGraphModel dx="597" dy="1147" grid="1" gridSize="10" guides="1" tooltips="1" connect="1" arrows="1" fold="1" page="0" pageScale="1" pageWidth="827" pageHeight="1169" background="none" math="0" shadow="0">
            <root>
                <mxCell id="0"/>
                <mxCell id="1" parent="0"/>
                <mxCell id="2" value="" style="endArrow=none;html=1;strokeColor=#FF9933;fontColor=#3399FF;" edge="1" parent="1">
                    <mxGeometry width="50" height="50" relative="1" as="geometry">
                        <mxPoint x="360" y="640" as="sourcePoint"/>
                        <mxPoint x="360" y="240" as="targetPoint"/>
                    </mxGeometry>
                </mxCell>
                <mxCell id="3" value="" style="endArrow=none;html=1;strokeColor=#FF9933;fontColor=#3399FF;" edge="1" parent="1">
                    <mxGeometry width="50" height="50" relative="1" as="geometry">
                        <mxPoint x="520" y="640" as="sourcePoint"/>
                        <mxPoint x="520" y="240" as="targetPoint"/>
                    </mxGeometry>
                </mxCell>
                <mxCell id="4" value="&lt;font style=&quot;font-size: 16px;&quot;&gt;Tx&lt;/font&gt;" style="text;html=1;align=center;verticalAlign=middle;resizable=0;points=[];autosize=1;strokeColor=#FF9933;fillColor=none;fontColor=#3399FF;" vertex="1" parent="1">
                    <mxGeometry x="340" y="195" width="40" height="30" as="geometry"/>
                </mxCell>
                <mxCell id="5" value="&lt;font style=&quot;font-size: 16px;&quot;&gt;Rx&lt;/font&gt;" style="text;html=1;align=center;verticalAlign=middle;resizable=0;points=[];autosize=1;strokeColor=#FF9933;fillColor=none;fontColor=#3399FF;" vertex="1" parent="1">
                    <mxGeometry x="500" y="195" width="40" height="30" as="geometry"/>
                </mxCell>
                <mxCell id="16" style="edgeStyle=none;html=1;exitX=1;exitY=0.5;exitDx=0;exitDy=0;strokeColor=#FF9933;fontColor=#3399FF;" edge="1" parent="1" source="7">
                    <mxGeometry relative="1" as="geometry">
                        <mxPoint x="520" y="290" as="targetPoint"/>
                    </mxGeometry>
                </mxCell>
                <mxCell id="7" value="0" style="ellipse;whiteSpace=wrap;html=1;aspect=fixed;strokeColor=#FF9933;fontColor=#3399FF;" vertex="1" parent="1">
                    <mxGeometry x="370" y="250" width="20" height="20" as="geometry"/>
                </mxCell>
                <mxCell id="8" value="1" style="ellipse;whiteSpace=wrap;html=1;aspect=fixed;strokeColor=#FF9933;fontColor=#3399FF;" vertex="1" parent="1">
                    <mxGeometry x="370" y="290" width="20" height="20" as="geometry"/>
                </mxCell>
                <mxCell id="10" value="2" style="ellipse;whiteSpace=wrap;html=1;aspect=fixed;strokeColor=#FF9933;fontColor=#3399FF;" vertex="1" parent="1">
                    <mxGeometry x="370" y="330" width="20" height="20" as="geometry"/>
                </mxCell>
                <mxCell id="11" value="3" style="ellipse;whiteSpace=wrap;html=1;aspect=fixed;strokeColor=#FF9933;fontColor=#3399FF;" vertex="1" parent="1">
                    <mxGeometry x="370" y="370" width="20" height="20" as="geometry"/>
                </mxCell>
                <mxCell id="12" value="4" style="ellipse;whiteSpace=wrap;html=1;aspect=fixed;strokeColor=#FF9933;fontColor=#3399FF;" vertex="1" parent="1">
                    <mxGeometry x="370" y="410" width="20" height="20" as="geometry"/>
                </mxCell>
                <mxCell id="13" value="5" style="ellipse;whiteSpace=wrap;html=1;aspect=fixed;strokeColor=#FF9933;fontColor=#3399FF;" vertex="1" parent="1">
                    <mxGeometry x="370" y="450" width="20" height="20" as="geometry"/>
                </mxCell>
                <mxCell id="14" value="6" style="ellipse;whiteSpace=wrap;html=1;aspect=fixed;strokeColor=#FF9933;fontColor=#3399FF;" vertex="1" parent="1">
                    <mxGeometry x="370" y="490" width="20" height="20" as="geometry"/>
                </mxCell>
                <mxCell id="15" value="" style="shape=flexArrow;endArrow=classic;startArrow=classic;html=1;strokeColor=#FF9933;fontColor=#3399FF;" edge="1" parent="1">
                    <mxGeometry width="100" height="100" relative="1" as="geometry">
                        <mxPoint x="320" y="440" as="sourcePoint"/>
                        <mxPoint x="320" y="240" as="targetPoint"/>
                    </mxGeometry>
                </mxCell>
                <mxCell id="17" style="edgeStyle=none;html=1;exitX=1;exitY=0.5;exitDx=0;exitDy=0;strokeColor=#FF9933;fontColor=#3399FF;" edge="1" parent="1">
                    <mxGeometry relative="1" as="geometry">
                        <mxPoint x="520" y="330" as="targetPoint"/>
                        <mxPoint x="390" y="300" as="sourcePoint"/>
                    </mxGeometry>
                </mxCell>
                <mxCell id="18" style="edgeStyle=none;html=1;exitX=1;exitY=0.5;exitDx=0;exitDy=0;strokeColor=#FF9933;fontColor=#3399FF;" edge="1" parent="1">
                    <mxGeometry relative="1" as="geometry">
                        <mxPoint x="520" y="370" as="targetPoint"/>
                        <mxPoint x="390" y="340" as="sourcePoint"/>
                    </mxGeometry>
                </mxCell>
                <mxCell id="19" style="edgeStyle=none;html=1;exitX=1;exitY=0.5;exitDx=0;exitDy=0;strokeColor=#FF9933;fontColor=#3399FF;" edge="1" parent="1">
                    <mxGeometry relative="1" as="geometry">
                        <mxPoint x="520" y="410" as="targetPoint"/>
                        <mxPoint x="390" y="380" as="sourcePoint"/>
                    </mxGeometry>
                </mxCell>
                <mxCell id="20" style="edgeStyle=none;html=1;exitX=1;exitY=0.5;exitDx=0;exitDy=0;strokeColor=#FF9933;fontColor=#3399FF;" edge="1" parent="1">
                    <mxGeometry relative="1" as="geometry">
                        <mxPoint x="520" y="450" as="targetPoint"/>
                        <mxPoint x="390" y="420" as="sourcePoint"/>
                    </mxGeometry>
                </mxCell>
                <mxCell id="21" value="&lt;span style=&quot;font-size: 16px;&quot;&gt;ACK0&lt;/span&gt;" style="text;html=1;align=center;verticalAlign=middle;resizable=0;points=[];autosize=1;strokeColor=none;fillColor=none;fontColor=#3399FF;" vertex="1" parent="1">
                    <mxGeometry x="515" y="270" width="70" height="30" as="geometry"/>
                </mxCell>
                <mxCell id="22" value="&lt;span style=&quot;font-size: 16px;&quot;&gt;ACK1&lt;/span&gt;" style="text;html=1;align=center;verticalAlign=middle;resizable=0;points=[];autosize=1;strokeColor=none;fillColor=none;fontColor=#3399FF;" vertex="1" parent="1">
                    <mxGeometry x="515" y="310" width="70" height="30" as="geometry"/>
                </mxCell>
                <mxCell id="23" value="" style="shape=mxgraph.mockup.markup.redX;fillColor=#ff0000;html=1;shadow=0;strokeColor=none;fontSize=16;fontColor=#3399FF;" vertex="1" parent="1">
                    <mxGeometry x="540" y="360" width="20" height="20" as="geometry"/>
                </mxCell>
                <mxCell id="24" value="" style="shape=mxgraph.mockup.markup.redX;fillColor=#ff0000;html=1;shadow=0;strokeColor=none;fontSize=16;fontColor=#3399FF;" vertex="1" parent="1">
                    <mxGeometry x="540" y="400" width="20" height="20" as="geometry"/>
                </mxCell>
                <mxCell id="25" value="" style="shape=mxgraph.mockup.markup.redX;fillColor=#ff0000;html=1;shadow=0;strokeColor=none;fontSize=16;fontColor=#3399FF;" vertex="1" parent="1">
                    <mxGeometry x="540" y="440" width="20" height="20" as="geometry"/>
                </mxCell>
                <mxCell id="26" value="" style="endArrow=classic;html=1;fontSize=16;exitX=0.014;exitY=0.7;exitDx=0;exitDy=0;exitPerimeter=0;strokeColor=#FF9933;fontColor=#3399FF;" edge="1" parent="1" source="21">
                    <mxGeometry width="50" height="50" relative="1" as="geometry">
                        <mxPoint x="470" y="150" as="sourcePoint"/>
                        <mxPoint x="360" y="450" as="targetPoint"/>
                    </mxGeometry>
                </mxCell>
                <mxCell id="27" value="" style="endArrow=classic;html=1;fontSize=16;exitX=0.014;exitY=0.7;exitDx=0;exitDy=0;exitPerimeter=0;strokeColor=#FF9933;fontColor=#3399FF;" edge="1" parent="1">
                    <mxGeometry width="50" height="50" relative="1" as="geometry">
                        <mxPoint x="515" y="330" as="sourcePoint"/>
                        <mxPoint x="359.02" y="489" as="targetPoint"/>
                    </mxGeometry>
                </mxCell>
                <mxCell id="28" value="" style="endArrow=none;html=1;strokeColor=#FF9933;fontColor=#3399FF;" edge="1" parent="1">
                    <mxGeometry width="50" height="50" relative="1" as="geometry">
                        <mxPoint x="690" y="632.5" as="sourcePoint"/>
                        <mxPoint x="690" y="232.5" as="targetPoint"/>
                    </mxGeometry>
                </mxCell>
                <mxCell id="29" value="" style="endArrow=none;html=1;strokeColor=#FF9933;fontColor=#3399FF;" edge="1" parent="1">
                    <mxGeometry width="50" height="50" relative="1" as="geometry">
                        <mxPoint x="850" y="632.5" as="sourcePoint"/>
                        <mxPoint x="850" y="232.5" as="targetPoint"/>
                    </mxGeometry>
                </mxCell>
                <mxCell id="30" value="&lt;font style=&quot;font-size: 16px;&quot;&gt;Tx&lt;/font&gt;" style="text;html=1;align=center;verticalAlign=middle;resizable=0;points=[];autosize=1;strokeColor=#FF9933;fillColor=none;fontColor=#3399FF;" vertex="1" parent="1">
                    <mxGeometry x="670" y="187.5" width="40" height="30" as="geometry"/>
                </mxCell>
                <mxCell id="31" value="&lt;font style=&quot;font-size: 16px;&quot;&gt;Rx&lt;/font&gt;" style="text;html=1;align=center;verticalAlign=middle;resizable=0;points=[];autosize=1;strokeColor=#FF9933;fillColor=none;fontColor=#3399FF;" vertex="1" parent="1">
                    <mxGeometry x="830" y="187.5" width="40" height="30" as="geometry"/>
                </mxCell>
                <mxCell id="32" style="edgeStyle=none;html=1;exitX=1;exitY=0.5;exitDx=0;exitDy=0;strokeColor=#FF9933;fontColor=#3399FF;" edge="1" source="33" parent="1">
                    <mxGeometry relative="1" as="geometry">
                        <mxPoint x="850" y="282.5" as="targetPoint"/>
                    </mxGeometry>
                </mxCell>
                <mxCell id="33" value="0" style="ellipse;whiteSpace=wrap;html=1;aspect=fixed;strokeColor=#FF9933;fontColor=#3399FF;" vertex="1" parent="1">
                    <mxGeometry x="700" y="242.5" width="20" height="20" as="geometry"/>
                </mxCell>
                <mxCell id="34" value="1" style="ellipse;whiteSpace=wrap;html=1;aspect=fixed;strokeColor=#FF9933;fontColor=#3399FF;" vertex="1" parent="1">
                    <mxGeometry x="700" y="282.5" width="20" height="20" as="geometry"/>
                </mxCell>
                <mxCell id="35" value="2" style="ellipse;whiteSpace=wrap;html=1;aspect=fixed;strokeColor=#FF9933;fontColor=#3399FF;" vertex="1" parent="1">
                    <mxGeometry x="700" y="322.5" width="20" height="20" as="geometry"/>
                </mxCell>
                <mxCell id="36" value="3" style="ellipse;whiteSpace=wrap;html=1;aspect=fixed;strokeColor=#FF9933;fontColor=#3399FF;" vertex="1" parent="1">
                    <mxGeometry x="700" y="362.5" width="20" height="20" as="geometry"/>
                </mxCell>
                <mxCell id="37" value="4" style="ellipse;whiteSpace=wrap;html=1;aspect=fixed;strokeColor=#FF9933;fontColor=#3399FF;" vertex="1" parent="1">
                    <mxGeometry x="700" y="402.5" width="20" height="20" as="geometry"/>
                </mxCell>
                <mxCell id="38" value="5" style="ellipse;whiteSpace=wrap;html=1;aspect=fixed;strokeColor=#FF9933;fontColor=#3399FF;" vertex="1" parent="1">
                    <mxGeometry x="700" y="442.5" width="20" height="20" as="geometry"/>
                </mxCell>
                <mxCell id="39" value="6" style="ellipse;whiteSpace=wrap;html=1;aspect=fixed;strokeColor=#FF9933;fontColor=#3399FF;" vertex="1" parent="1">
                    <mxGeometry x="700" y="482.5" width="20" height="20" as="geometry"/>
                </mxCell>
                <mxCell id="40" value="" style="shape=flexArrow;endArrow=classic;startArrow=classic;html=1;strokeColor=#FF9933;fontColor=#3399FF;" edge="1" parent="1">
                    <mxGeometry width="100" height="100" relative="1" as="geometry">
                        <mxPoint x="650" y="512.5" as="sourcePoint"/>
                        <mxPoint x="650" y="312.5" as="targetPoint"/>
                    </mxGeometry>
                </mxCell>
                <mxCell id="41" style="edgeStyle=none;html=1;exitX=1;exitY=0.5;exitDx=0;exitDy=0;strokeColor=#FF9933;fontColor=#3399FF;" edge="1" parent="1">
                    <mxGeometry relative="1" as="geometry">
                        <mxPoint x="850" y="322.5" as="targetPoint"/>
                        <mxPoint x="720" y="292.5" as="sourcePoint"/>
                    </mxGeometry>
                </mxCell>
                <mxCell id="42" style="edgeStyle=none;html=1;exitX=1;exitY=0.5;exitDx=0;exitDy=0;strokeColor=#FF9933;fontColor=#3399FF;" edge="1" parent="1">
                    <mxGeometry relative="1" as="geometry">
                        <mxPoint x="850" y="362.5" as="targetPoint"/>
                        <mxPoint x="720" y="332.5" as="sourcePoint"/>
                    </mxGeometry>
                </mxCell>
                <mxCell id="43" style="edgeStyle=none;html=1;exitX=1;exitY=0.5;exitDx=0;exitDy=0;strokeColor=#FF9933;fontColor=#3399FF;" edge="1" parent="1">
                    <mxGeometry relative="1" as="geometry">
                        <mxPoint x="850" y="402.5" as="targetPoint"/>
                        <mxPoint x="720" y="372.5" as="sourcePoint"/>
                    </mxGeometry>
                </mxCell>
                <mxCell id="44" style="edgeStyle=none;html=1;exitX=1;exitY=0.5;exitDx=0;exitDy=0;strokeColor=#FF9933;fontColor=#3399FF;" edge="1" parent="1">
                    <mxGeometry relative="1" as="geometry">
                        <mxPoint x="850" y="442.5" as="targetPoint"/>
                        <mxPoint x="720" y="412.5" as="sourcePoint"/>
                    </mxGeometry>
                </mxCell>
                <mxCell id="45" value="&lt;span style=&quot;font-size: 16px;&quot;&gt;ACK0&lt;/span&gt;" style="text;html=1;align=center;verticalAlign=middle;resizable=0;points=[];autosize=1;strokeColor=none;fillColor=none;fontColor=#3399FF;" vertex="1" parent="1">
                    <mxGeometry x="845" y="262.5" width="70" height="30" as="geometry"/>
                </mxCell>
                <mxCell id="46" value="&lt;span style=&quot;font-size: 16px;&quot;&gt;ACK1&lt;/span&gt;" style="text;html=1;align=center;verticalAlign=middle;resizable=0;points=[];autosize=1;strokeColor=none;fillColor=none;fontColor=#3399FF;" vertex="1" parent="1">
                    <mxGeometry x="845" y="302.5" width="70" height="30" as="geometry"/>
                </mxCell>
                <mxCell id="47" value="" style="shape=mxgraph.mockup.markup.redX;fillColor=#ff0000;html=1;shadow=0;strokeColor=none;fontSize=16;fontColor=#3399FF;" vertex="1" parent="1">
                    <mxGeometry x="870" y="352.5" width="20" height="20" as="geometry"/>
                </mxCell>
                <mxCell id="48" value="" style="shape=mxgraph.mockup.markup.redX;fillColor=#ff0000;html=1;shadow=0;strokeColor=none;fontSize=16;fontColor=#3399FF;" vertex="1" parent="1">
                    <mxGeometry x="870" y="392.5" width="20" height="20" as="geometry"/>
                </mxCell>
                <mxCell id="49" value="" style="shape=mxgraph.mockup.markup.redX;fillColor=#ff0000;html=1;shadow=0;strokeColor=none;fontSize=16;fontColor=#3399FF;" vertex="1" parent="1">
                    <mxGeometry x="870" y="432.5" width="20" height="20" as="geometry"/>
                </mxCell>
                <mxCell id="50" value="" style="endArrow=classic;html=1;fontSize=16;exitX=0.014;exitY=0.7;exitDx=0;exitDy=0;exitPerimeter=0;strokeColor=#FF9933;fontColor=#3399FF;" edge="1" source="45" parent="1">
                    <mxGeometry width="50" height="50" relative="1" as="geometry">
                        <mxPoint x="800" y="142.5" as="sourcePoint"/>
                        <mxPoint x="690" y="442.5" as="targetPoint"/>
                    </mxGeometry>
                </mxCell>
                <mxCell id="51" value="" style="endArrow=classic;html=1;fontSize=16;exitX=0.014;exitY=0.7;exitDx=0;exitDy=0;exitPerimeter=0;strokeColor=#FF9933;fontColor=#3399FF;" edge="1" parent="1">
                    <mxGeometry width="50" height="50" relative="1" as="geometry">
                        <mxPoint x="845" y="322.5" as="sourcePoint"/>
                        <mxPoint x="689.02" y="481.5" as="targetPoint"/>
                    </mxGeometry>
                </mxCell>
                <mxCell id="52" style="edgeStyle=none;html=1;exitX=1;exitY=0.5;exitDx=0;exitDy=0;strokeColor=#FF9933;fontColor=#3399FF;" edge="1" parent="1">
                    <mxGeometry relative="1" as="geometry">
                        <mxPoint x="850" y="480" as="targetPoint"/>
                        <mxPoint x="720" y="450" as="sourcePoint"/>
                    </mxGeometry>
                </mxCell>
                <mxCell id="53" style="edgeStyle=none;html=1;exitX=1;exitY=0.5;exitDx=0;exitDy=0;strokeColor=#FF9933;fontColor=#3399FF;" edge="1" parent="1">
                    <mxGeometry relative="1" as="geometry">
                        <mxPoint x="850" y="520" as="targetPoint"/>
                        <mxPoint x="720" y="490" as="sourcePoint"/>
                    </mxGeometry>
                </mxCell>
                <mxCell id="54" value="" style="shape=mxgraph.mockup.markup.redX;fillColor=#ff0000;html=1;shadow=0;strokeColor=none;fontSize=16;fontColor=#3399FF;" vertex="1" parent="1">
                    <mxGeometry x="870" y="470" width="20" height="20" as="geometry"/>
                </mxCell>
                <mxCell id="55" value="" style="shape=mxgraph.mockup.markup.redX;fillColor=#ff0000;html=1;shadow=0;strokeColor=none;fontSize=16;fontColor=#3399FF;" vertex="1" parent="1">
                    <mxGeometry x="870" y="510" width="20" height="20" as="geometry"/>
                </mxCell>
                <mxCell id="56" value="&lt;span style=&quot;font-size: 16px;&quot;&gt;(ACK1)&lt;/span&gt;" style="text;html=1;align=center;verticalAlign=middle;resizable=0;points=[];autosize=1;strokeColor=none;fillColor=none;fontColor=#3399FF;" vertex="1" parent="1">
                    <mxGeometry x="885" y="387.5" width="80" height="30" as="geometry"/>
                </mxCell>
            </root>
        </mxGraphModel>
    </diagram>
</mxfile>